# xmcd
#
# Track frame offsets:
#	150
#	13563
#	23469
#	34126
#	43883
#	56514
#	67506
#	79074
#	92415
#	102231
#	115217
#
# Disc length: 1689 seconds
#
# Revision: 2
# Processed by: cddbd v1.5.2PL0 Copyright (c) Steve Scherf et al.
# Submitted via: audiograbber 1.83.01
#
DISCID=7706970b
DTITLE=George Jones  Tammy Wynette - We're Gonna Hold On
DYEAR=1974
DGENRE=Country
TTITLE0=We're Gonna Hold On
TTITLE1=When True Love Steps In
TTITLE2=Never Ending Song Of Love
TTITLE3=Wouldn't I
TTITLE4=Roll In My Sweet Baby's Arms
TTITLE5=The Jet Set (We're Not)
TTITLE6=Crawdad Song
TTITLE7=If Loving You Starts Hurting Me
TTITLE8=Tammy)
TTITLE9=George)
TTITLE10=As Long As We Can
EXTD=
EXTT0=
EXTT1=
EXTT2=
EXTT3=
EXTT4=
EXTT5=
EXTT6=
EXTT7=
EXTT8=
EXTT9=
EXTT10=
PLAYORDER=
